/* XPM */
static char * pmviewk6[] = {
/* width height ncolors chars_per_pixel */
"24 24 157 1",
/* colors */
"  c #FF991F",
"! c #FF9D23",
"# c #5B2D12",
"$ c #CE7824",
"% c #7A4119",
"& c #884B1A",
"' c #FC9423",
"( c #100102",
") c #AB6421",
"* c #FDAC43",
"+ c #401A0F",
", c #6E3713",
"- c #130C06",
". c #91541D",
"/ c #150208",
"0 c #0C1D0C",
"1 c #A45818",
"2 c #0C240C",
"3 c #337D32",
"4 c #112E0E",
"5 c #FFA625",
"6 c #13180C",
"7 c #BB6A1C",
"8 c #25701F",
"9 c #FEAC31",
": c #43864A",
"; c #CE8035",
"< c #4C210F",
"= c #FFA02C",
"> c #236A1B",
"? c #45964A",
"@ c #57A156",
"A c #2C7D2B",
"B c #216319",
"C c #060706",
"D c #23651C",
"E c #1C5B15",
"F c #30772D",
"G c #438D4A",
"H c #332B17",
"I c #DB7E29",
"J c #110D0B",
"K c #36150B",
"L c #E5953E",
"M c #1C5C19",
"N c #4B9F4E",
"O c #320D07",
"P c #1D6219",
"Q c #210C06",
"R c #449D4A",
"S c #479149",
"T c #185218",
"U c #4F9854",
"V c #2A130E",
"W c #3E8B3E",
"X c #9C5C20",
"Y c #0B120A",
"Z c #F6922A",
"[ c #1D5715",
"] c #EF8927",
"^ c #1D5315",
"_ c #FFBB48",
"` c #378039",
"a c #0D2A0E",
"b c #041306",
"c c #270B08",
"d c #08230B",
"e c #297323",
"f c #153410",
"g c #FE962D",
"h c #1D3116",
"i c #37793C",
"j c #1C0306",
"k c #336F32",
"l c #181211",
"m c #190A0C",
"n c #267224",
"o c #256127",
"p c #1A5518",
"q c #E3862E",
"r c #2C7E25",
"s c #0E1608",
"t c #2B6C2A",
"u c #184D11",
"v c #1D4B15",
"w c #4B934D",
"x c #1B060A",
"y c #1A3C15",
"z c #021A0A",
"{ c #47AD49",
"| c #4E8D4C",
"} c #1F5716",
"~ c #154715",
" c #266723",
"Ä c #123810",
"Å c #13260B",
"Ç c #EF9239",
"É c #244625",
"Ñ c #E28A24",
"Ö c #277921",
"Ü c #220B10",
"á c #225D1E",
"à c #338638",
"â c #2A6028",
"ä c #1A5513",
"ã c #185111",
"å c #205C17",
"ç c #081A08",
"é c #225A19",
"è c #221B11",
"ê c #1A4B12",
"ë c #275E20",
"í c #20661F",
"ì c #2C7733",
"î c #05130B",
"ï c #174913",
"ñ c #6DB669",
"ó c #246C21",
"ò c #419443",
"ô c #15480E",
"ö c #498C4E",
"õ c #46874C",
"ú c #418B45",
"ù c #478B48",
"û c #12370C",
"ü c #154310",
"† c #153C16",
"° c #448342",
"¢ c #53B25B",
"£ c #398839",
"§ c #297029",
"• c #66B05E",
"¶ c #185214",
"ß c #2E8530",
"® c #23571D",
"© c #BB6F25",
"™ c #3A8E43",
"´ c #F09325",
"¨ c #164015",
"≠ c #325336",
"Æ c #206016",
"Ø c #192B14",
"∞ c #133816",
"± c #164F15",
"≤ c #174D21",
"≥ c #021D07",
"¥ c #38853F",
"µ c #27621F",
"∂ c #3EA045",
"∑ c #183619",
"∏ c #19381C",
"π c #124012",
"∫ c #313C2F",
"ª c #194513",
"º c #1E561B",
"Ω c #324A30",
"æ c #1D4B1B",
/* pixels */
"uUõ::w|ùG?S¥kH∫@úi:S£`ká",
"|@::GUGöRiØH<.%liWWò`33t",
"ñU:GwU?R≠V%L**9,lk`W3FFF",
"•@GS@N?RV$_*=!!]#∑ì3AreD",
"@@S?¢NR∂H#,$!   7VèFrreB",
"NN?{°âW{ào6Q15 '7)+µen8>",
"?™ÉΩ-%Jàßhhm%75I&,ÜpD>>D",
"ÉH<;;_&JH#;;*%$'1(0ï}D>Æ",
"OÇ**9=!,L*_9=´Z='&/f^éBB",
",)Ç!  '')q!   !! 5.xypéP",
"æ/+1!   %&1!  ']!'$#6päå",
"3â∏()5 ).#/75')XI 1<suT[",
"toºÅj) ©<-J/7 7+KÑ'+-†T^",
"Fo®≤lV9 &(z-+9 &KÑ9$+2ê^",
"3§tfKL*!!1(KL*! )1]g&(Ä^",
"AAAh&;Z ! ,.;g! ',j)q#Q~",
"3AAë4j#$!$.Qx#$!$&cQ#&cû",
"nnÖÖ8yîOI'%(YCKIZ,/CCOm4",
"ó888í±¨C%5q<(d(%5I<-bbça",
"D>8>BT~-.=!$/0-X=g$(bzd2",
"PPPMETôf(#XZ%(6m#)]%/024",
"E[MEEMuªÄç/&.#Y0CÜ.X#sÅ4",
"[¶äåEBávü∞sCc+Yd≥JJO+6a4",
"ãã[}MBvπ426602200Y-2a4"
};
