/* XPM */
static char * pmviewel[] = {
/* width height ncolors chars_per_pixel */
"24 24 136 1",
/* colors */
"  c #653513",
"! c #FF9A20",
"# c #794417",
"$ c #240908",
"% c #3B1508",
"& c #884A17",
"' c #47220E",
"( c #0C0303",
") c #522912",
"* c #0E2F0D",
"+ c #170405",
", c #D58633",
"- c #2D0B08",
". c #FFA022",
"/ c #0B0A07",
"0 c #000000",
"1 c #F8992A",
"2 c #3E8643",
"3 c #0E290D",
"4 c #0F150A",
"5 c #0D1D0C",
"6 c #246B1E",
"7 c #082109",
"8 c #9F5B1E",
"9 c #B77126",
": c #A46326",
"; c #F59125",
"< c #18120B",
"= c #FC9F37",
"> c #1B5315",
"? c #0E1008",
"@ c #FE9323",
"A c #C37B27",
"B c #AD671F",
"C c #143414",
"D c #FFA02E",
"E c #FEAE44",
"F c #0B230C",
"G c #34140F",
"H c #132C0D",
"I c #3C1B0D",
"J c #F0902D",
"K c #113910",
"L c #226719",
"M c #296D35",
"N c #387236",
"O c #206317",
"P c #20622A",
"Q c #7B5321",
"R c #113111",
"S c #143510",
"T c #E68927",
"U c #256729",
"V c #2F0F11",
"W c #277027",
"X c #FFBB49",
"Y c #051609",
"Z c #FFA937",
"[ c #90551F",
"] c #164012",
"^ c #153E11",
"_ c #439548",
"` c #205D18",
"a c #C46A1E",
"b c #184F15",
"c c #2A622D",
"d c #143B14",
"e c #041205",
"f c #1D4A1D",
"g c #418D45",
"h c #091A08",
"i c #256223",
"j c #DE9031",
"k c #152F1E",
"l c #D5831F",
"m c #1C4E14",
"n c #ED9439",
"o c #BE8B3C",
"p c #1E5A1C",
"q c #031F0D",
"r c #499044",
"s c #1C4613",
"t c #337C2F",
"u c #25751D",
"v c #3A833D",
"w c #267122",
"x c #114221",
"y c #164B15",
"z c #1E5815",
"{ c #216923",
"| c #3B7C3C",
"} c #1C4917",
"~ c #1A4E11",
" c #22611C",
"Ä c #2C732B",
"Å c #398738",
"Ç c #164712",
"É c #1D521B",
"Ñ c #154610",
"Ö c #173D15",
"Ü c #164715",
"á c #4B984C",
"à c #234625",
"â c #4AA147",
"ä c #134010",
"ã c #204018",
"å c #DD9C3B",
"ç c #23471D",
"é c #257925",
"è c #4EA14C",
"ê c #184A11",
"ë c #203818",
"í c #2A7D23",
"ì c #202619",
"î c #2E7931",
"ï c #5BA858",
"ñ c #184211",
"ó c #225C1E",
"ò c #59B255",
"ô c #16410E",
"ö c #185F27",
"õ c #429642",
"ú c #D57320",
"ù c #E89525",
"û c #316826",
"ü c #183A12",
"† c #296723",
"° c #2D5C23",
"¢ c #2A6B28",
"£ c #2D7524",
"§ c #1A4419",
"• c #103F09",
"¶ c #23561D",
"ß c #459C49",
"® c #1D4E17",
"© c #1A440B",
/* pixels */
"©¢|2|ccMMNÄPUUMMPöPUPi†",
"•vvgà Q##-%&&&##Q###&'fL",
"M22gkAEZD-G&#&j,,,,,T#dp",
"22g_koD!.)GV-$$VG$$+$$ü>",
"22r_k,D!!@=EEj)$- #  I*Ñ",
"2áß_ã 1!!!.Jj1Z9-[&,J&Yä",
"èòâõë(=!!!;:#:;.B(($V-5d",
"ïNcx$,=;!!!a-+ @, ' )%5S",
"N)[QoZ8 l.!!#00aB) B1&YS",
"°8XZT8%(I;!.J ('%$00I$4R",
"N$&# %<4$n.!!9++)))''-h*",
"rç<<<<F-åE.@@T +89nn1#e*",
"ÅtóxCR(QX19ú.@:$0$)%'Ge*",
"Åû¶§CC%E=B#'a!@ //V%%-5H",
"tWiffÉ'XA&'(+D!;)0#91&YC",
"îWUi{{'XA'(Y+8J!18'0 %4S",
"ÄWw£éw<:1#(74+I81.T%(/5H",
"W66uí6y'DA-?F7/+&l.lG4F*",
"6LL6u6O09, /F*34(Iù,#(qR",
"OOL6Lì/9A ?*KR3*0:; /7*",
"`z>O6`%==:$?*Kd^Öe[J /73",
"z>b>`p%B#)+F3K]sÜC+ )?73",
">m~bb>H54/?53K^s}]H?/47H",
"®êñÇm~y^*qh7*Kôm}]S35h53"
};
